<svg width="36" height="36" viewBox="0 0 36 36" fill="none" xmlns="http://www.w3.org/2000/svg">
<g id="facebook">
<path id="bg" d="M0 18C0 27.9411 8.05888 36 18 36C27.9411 36 36 27.9411 36 18C36 8.05888 27.9411 0 18 0C8.05888 0 0 8.05888 0 18Z" fill="#FFBB65" fill-opacity="0.66"/>
<path id="facebook_2" d="M26 18C26 13.6 22.4 10 18 10C13.6 10 10 13.6 10 18C10 22 12.9 25.3 16.7 25.9V20.3H14.7V18H16.7V16.2C16.7 14.2 17.9 13.1 19.7 13.1C20.6 13.1 21.5 13.3 21.5 13.3V15.3H20.5C19.5 15.3 19.2 15.9 19.2 16.5V18H21.4L21 20.3H19.1V26C23.1 25.4 26 22 26 18Z" fill="#18302B"/>
</g>
</svg>
