<svg width="161" height="160" viewBox="0 0 161 160" fill="none" xmlns="http://www.w3.org/2000/svg">
<g filter="url(#filter0_d_203_182)">
<circle cx="76.5" cy="65" r="54" fill="white"/>
</g>
<g clip-path="url(#clip0_203_182)">
<path d="M63.5 80.4375H76.5" stroke="#18302B" stroke-width="3" stroke-linecap="round" stroke-linejoin="round"/>
<path d="M70 80.0312V45.5L57 58.5H96" stroke="#18302B" stroke-width="3" stroke-linecap="round" stroke-linejoin="round"/>
<path d="M70 45.5L91.6667 58.5" stroke="#18302B" stroke-width="3" stroke-linecap="round" stroke-linejoin="round"/>
<path d="M87.3333 58.5V67.1667C88.1904 67.1667 89.0282 67.4208 89.7408 67.897C90.4534 68.3731 91.0088 69.0499 91.3368 69.8417C91.6648 70.6335 91.7506 71.5048 91.5834 72.3454C91.4162 73.186 91.0035 73.9581 90.3975 74.5641C89.7914 75.1702 89.0193 75.5829 88.1787 75.7501C87.3381 75.9173 86.4669 75.8315 85.675 75.5035C84.8832 75.1755 84.2065 74.6201 83.7303 73.9075C83.2541 73.1949 83 72.3571 83 71.5" stroke="#18302B" stroke-width="3" stroke-linecap="round" stroke-linejoin="round"/>
<g clip-path="url(#clip1_203_182)">
<path d="M59.979 85.9904C60.3174 86.4618 60.7655 86.8438 61.2845 87.1033C61.8036 87.3628 62.378 87.4921 62.9582 87.48C63.5384 87.4921 64.1128 87.3628 64.6318 87.1033C65.1509 86.8438 65.5989 86.4618 65.9373 85.9904C66.2757 85.5189 66.7238 85.1369 67.2428 84.8774C67.7619 84.6179 68.3363 84.4886 68.9165 84.5008C69.4967 84.4886 70.0711 84.6179 70.5902 84.8774C71.1092 85.1369 71.5573 85.5189 71.8957 85.9904C72.2341 86.4618 72.6821 86.8438 73.2012 87.1033C73.7202 87.3628 74.2947 87.4921 74.8748 87.48C75.455 87.4921 76.0294 87.3628 76.5485 87.1033C77.0675 86.8438 77.5156 86.4618 77.854 85.9904C78.1924 85.5189 78.6405 85.1369 79.1595 84.8774C79.6786 84.6179 80.253 84.4886 80.8332 84.5008C81.4134 84.4886 81.9878 84.6179 82.5068 84.8774C83.0259 85.1369 83.4739 85.5189 83.8123 85.9904C84.1507 86.4618 84.5988 86.8438 85.1178 87.1033C85.6369 87.3628 86.2113 87.4921 86.7915 87.48C87.3717 87.4921 87.9461 87.3628 88.4652 87.1033C88.9842 86.8438 89.4323 86.4618 89.7707 85.9904" stroke="#18302B" stroke-width="3" stroke-linecap="round" stroke-linejoin="round"/>
</g>
</g>
<defs>
<filter id="filter0_d_203_182" x="0.5" y="0" width="160" height="160" filterUnits="userSpaceOnUse" color-interpolation-filters="sRGB">
<feFlood flood-opacity="0" result="BackgroundImageFix"/>
<feColorMatrix in="SourceAlpha" type="matrix" values="0 0 0 0 0 0 0 0 0 0 0 0 0 0 0 0 0 0 127 0" result="hardAlpha"/>
<feOffset dx="4" dy="15"/>
<feGaussianBlur stdDeviation="13"/>
<feComposite in2="hardAlpha" operator="out"/>
<feColorMatrix type="matrix" values="0 0 0 0 0.686275 0 0 0 0 0.596078 0 0 0 0 0.345098 0 0 0 0.12 0"/>
<feBlend mode="normal" in2="BackgroundImageFix" result="effect1_dropShadow_203_182"/>
<feBlend mode="normal" in="SourceGraphic" in2="effect1_dropShadow_203_182" result="shape"/>
</filter>
<clipPath id="clip0_203_182">
<rect width="52" height="52" fill="white" transform="translate(50.5 39)"/>
</clipPath>
<clipPath id="clip1_203_182">
<rect width="35.75" height="35.75" fill="white" transform="translate(57 65)"/>
</clipPath>
</defs>
</svg>
