<svg width="36" height="36" viewBox="0 0 36 36" fill="none" xmlns="http://www.w3.org/2000/svg">
<g id="instagram">
<path id="bg" d="M0 18C0 27.9411 8.05888 36 18 36C27.9411 36 36 27.9411 36 18C36 8.05888 27.9411 0 18 0C8.05888 0 0 8.05888 0 18Z" fill="#FFBB65" fill-opacity="0.66"/>
<g id="instagram_2">
<path d="M18.0002 11.2031C20.2002 11.2031 20.5002 11.2031 21.4002 11.2031C22.2002 11.2031 22.6002 11.4031 22.9002 11.5031C23.3002 11.7031 23.6002 11.8031 23.9002 12.1031C24.2002 12.4031 24.4002 12.7031 24.5002 13.1031C24.6002 13.4031 24.7002 13.8031 24.8002 14.6031C24.8002 15.5031 24.8002 15.7031 24.8002 18.0031C24.8002 20.3031 24.8002 20.5031 24.8002 21.4031C24.8002 22.2031 24.6002 22.6031 24.5002 22.9031C24.3002 23.3031 24.2002 23.6031 23.9002 23.9031C23.6002 24.2031 23.3002 24.4031 22.9002 24.5031C22.6002 24.6031 22.2002 24.7031 21.4002 24.8031C20.5002 24.8031 20.3002 24.8031 18.0002 24.8031C15.7002 24.8031 15.5002 24.8031 14.6002 24.8031C13.8002 24.8031 13.4002 24.6031 13.1002 24.5031C12.7002 24.3031 12.4002 24.2031 12.1002 23.9031C11.8002 23.6031 11.6002 23.3031 11.5002 22.9031C11.4002 22.6031 11.3002 22.2031 11.2002 21.4031C11.2002 20.5031 11.2002 20.3031 11.2002 18.0031C11.2002 15.7031 11.2002 15.5031 11.2002 14.6031C11.2002 13.8031 11.4002 13.4031 11.5002 13.1031C11.7002 12.7031 11.8002 12.4031 12.1002 12.1031C12.4002 11.8031 12.7002 11.6031 13.1002 11.5031C13.4002 11.4031 13.8002 11.3031 14.6002 11.2031C15.5002 11.2031 15.8002 11.2031 18.0002 11.2031ZM18.0002 9.70312C15.7002 9.70312 15.5002 9.70312 14.6002 9.70312C13.7002 9.70312 13.1002 9.90313 12.6002 10.1031C12.1002 10.3031 11.6002 10.6031 11.1002 11.1031C10.6002 11.6031 10.4002 12.0031 10.1002 12.6031C9.9002 13.1031 9.8002 13.7031 9.7002 14.6031C9.7002 15.5031 9.7002 15.8031 9.7002 18.0031C9.7002 20.3031 9.7002 20.5031 9.7002 21.4031C9.7002 22.3031 9.9002 22.9031 10.1002 23.4031C10.3002 23.9031 10.6002 24.4031 11.1002 24.9031C11.6002 25.4031 12.0002 25.6031 12.6002 25.9031C13.1002 26.1031 13.7002 26.2031 14.6002 26.3031C15.5002 26.3031 15.8002 26.3031 18.0002 26.3031C20.2002 26.3031 20.5002 26.3031 21.4002 26.3031C22.3002 26.3031 22.9002 26.1031 23.4002 25.9031C23.9002 25.7031 24.4002 25.4031 24.9002 24.9031C25.4002 24.4031 25.6002 24.0031 25.9002 23.4031C26.1002 22.9031 26.2002 22.3031 26.3002 21.4031C26.3002 20.5031 26.3002 20.2031 26.3002 18.0031C26.3002 15.8031 26.3002 15.5031 26.3002 14.6031C26.3002 13.7031 26.1002 13.1031 25.9002 12.6031C25.7002 12.1031 25.4002 11.6031 24.9002 11.1031C24.4002 10.6031 24.0002 10.4031 23.4002 10.1031C22.9002 9.90313 22.3002 9.80313 21.4002 9.70312C20.5002 9.70313 20.3002 9.70312 18.0002 9.70312Z" fill="#18302B"/>
<path d="M18.0002 13.7031C15.6002 13.7031 13.7002 15.6031 13.7002 18.0031C13.7002 20.4031 15.6002 22.3031 18.0002 22.3031C20.4002 22.3031 22.3002 20.4031 22.3002 18.0031C22.3002 15.6031 20.4002 13.7031 18.0002 13.7031ZM18.0002 20.8031C16.5002 20.8031 15.2002 19.6031 15.2002 18.0031C15.2002 16.5031 16.4002 15.2031 18.0002 15.2031C19.5002 15.2031 20.8002 16.4031 20.8002 18.0031C20.8002 19.5031 19.5002 20.8031 18.0002 20.8031Z" fill="#18302B"/>
<path d="M22.4002 14.6031C22.9525 14.6031 23.4002 14.1554 23.4002 13.6031C23.4002 13.0508 22.9525 12.6031 22.4002 12.6031C21.8479 12.6031 21.4002 13.0508 21.4002 13.6031C21.4002 14.1554 21.8479 14.6031 22.4002 14.6031Z" fill="#18302B"/>
</g>
</g>
</svg>
